<svg xmlns="http://www.w3.org/2000/svg" xmlns:xlink="http://www.w3.org/1999/xlink" viewBox="0 0 44 44"><path fill="#FFF" d="M42.5 22c0 11.3-9.2 20.5-20.5 20.5S1.5 33.3 1.5 22 10.7 1.5 22 1.5 42.5 10.7 42.5 22"/><defs><path id="a" d="M30.8 33.4c0 1 .9 1.9 1.9 1.9 1 0 1.9-.8 1.9-1.9 0-1-.9-1.9-1.9-1.9-1 0-1.9.8-1.9 1.9M9.9 14.8v8.9c0 3.2 2.6 5.8 5.8 5.8.9 0 1.8-.2 2.6-.5v-2.7c-.6.3-1.2.4-1.9.4-2 0-3.6-1.6-3.6-3.6v-8.4H9.9zm10.6 14.4h3V14.8h-3v14.4zm5.2-14.3v2.7c.6-.3 1.2-.4 1.9-.4 2 0 3.6 1.6 3.6 3.6v8.4h3v-8.9c0-3.2-2.6-5.8-5.8-5.8-1-.1-1.9.1-2.7.4M11.2 8.7c-1 0-1.9.9-1.9 1.9 0 1 .9 1.9 1.9 1.9 1 0 1.9-.9 1.9-1.9.1-1-.8-1.8-1.9-1.9z"/></defs><clipPath id="b"><use xlink:href="#a" overflow="visible"/></clipPath><linearGradient id="c" gradientUnits="userSpaceOnUse" x1="-400.469" y1="318.383" x2="-399.987" y2="318.383" gradientTransform="matrix(52.309 0 0 -52.309 20957.375 16676.146)"><stop offset="0" stop-color="#7F3795"/><stop offset=".25" stop-color="#7F3795"/><stop offset=".75" stop-color="#602B80"/><stop offset="1" stop-color="#602B80"/></linearGradient><path clip-path="url(#b)" fill="url(#c)" d="M9.4 8.7h25.2v26.5H9.4z"/></svg>